<svg id="Layer_1" data-name="Layer 1" xmlns="http://www.w3.org/2000/svg" xmlns:xlink="http://www.w3.org/1999/xlink" viewBox="0 0 2000 2000"><defs><style>.cls-1{fill:none;}.cls-2,.cls-7{fill:#fff;}.cls-3{fill:#1d1d1b;}.cls-4{opacity:0.79;}.cls-5{clip-path:url(#clip-path);}.cls-6{opacity:0.16;}.cls-7,.cls-9{stroke:#1d1d1b;stroke-miterlimit:10;}.cls-8{clip-path:url(#clip-path-2);}</style><clipPath id="clip-path"><rect class="cls-1" x="-2069.02" y="2050.72" width="2000" height="2000"/></clipPath><clipPath id="clip-path-2"><rect class="cls-1" y="2050.72" width="2000" height="2000"/></clipPath></defs><path class="cls-2" d="M1050.25,1017.16c0,18.39-13.14,39-30,47.07-1.22.58-2.47,1.12-3.73,1.59-.82.31-1.68.6-2.52.87l-1.27.37c-.86.24-1.71.46-2.58.64a50.71,50.71,0,0,1-33.19-4.22c-1.62-.81-3.21-1.69-4.76-2.66a48.88,48.88,0,0,1-19-22c-3.92-9.11-5.72-28.3-3.35-35.73A56.19,56.19,0,0,1,957,988.45c.48-.69,1-1.36,1.46-2a53.6,53.6,0,0,1,12.59-12.09c1.13-.78,2.28-1.5,3.46-2.17s2.37-1.31,3.59-1.89,2.45-1.12,3.7-1.59a48.84,48.84,0,0,1,22.95-3c1.3.14,2.61.34,3.91.6a47.61,47.61,0,0,1,11.6,3.85C1037.11,978.18,1050.25,998.79,1050.25,1017.16Z"/><path class="cls-2" d="M1390.56,587.86l-69.91,50.8H678.38l-69.9-50.8H365.86L518,854.83l76.78,15.07,305.64,631.69-32.85,135.35,132,245.38,132-245.38-32.91-135.35L1404.3,869.9l76.78-15.07,152.14-267Zm-178.18,450.92a59.29,59.29,0,0,1-11.64,19.25c-.49.53-1,1.07-1.52,1.6a59.37,59.37,0,0,1-8.3,7.09q-1.79,1.24-3.64,2.37a55.58,55.58,0,0,1-32,8c-1.12-.08-2.23-.19-3.35-.32h0c-1.12-.14-2.24-.32-3.35-.54s-2.23-.47-3.35-.76c-19.84-5.23-32.84-16.8-40.66-36.23q-2-4.93-4-9.88h-27.87c-.78,2.66-1.54,5.31-2.32,8a74.86,74.86,0,0,1-16.79,30.57c-2.44,2.74-4.9,5.46-7.35,8.19q3.48,6.11,7,12.22c.3.53.59,1,.88,1.54a69.8,69.8,0,0,0,4.16,6.62c.18.25.37.48.54.69a5.88,5.88,0,0,0,.52.6c.15.18.32.35.48.52a6.64,6.64,0,0,0,.69.58,3.6,3.6,0,0,0,1.49.64,3.35,3.35,0,0,0,1,0l.52-.11a2.26,2.26,0,0,0,.37-.11,27.26,27.26,0,0,1,6.6-1l1.49-.07a90.61,90.61,0,0,1,16.33,1.08q1.23.19,2.43.42a51.72,51.72,0,0,1,6.78,1.73c12.42,4.25,27.48,18.53,33,31.37,5.88,13.51,6.07,35.93.43,48.58-5.24,11.73-16.61,24.08-27.32,29.68a41.55,41.55,0,0,1-4.26,1.91c-1.38.52-2.83,1-4.31,1.4-.66.19-1.32.37-2,.52-1.24.31-2.49.57-3.78.78s-2.43.4-3.65.54c-.73.09-1.45.17-2.19.23l-1.49.1a68.59,68.59,0,0,1-10.14-.09l-1.86-.18-1.47-.18c-1-.14-1.94-.31-2.89-.48a43.88,43.88,0,0,1-10.44-3.27c-13.44-6.33-23.82-16.43-29.87-29.12-4.28-9-5-12.87-5-25.58.1-17,3.74-27.53,13.5-38.95l5.91-6.94q-3.09-5.39-6.22-10.75c-.15-.27-.31-.53-.46-.79-.29-.51-.58-1-.85-1.45-2-3.47-3.41-5.52-4.74-6.7a6.42,6.42,0,0,0-.54-.41v0a5.22,5.22,0,0,0-1.09-.58,9.65,9.65,0,0,0-4.19-.34l-.61,0c-.49,0-1,.08-1.68.11-1.25.07-2.78.12-4.53.18h-.07c-7.55.21-18.87.24-27.47.09-1,0-2,0-3-.06l-1.36,0c-.23,0-.45,0-.67,0l-1.24,0h0l-1.15,0-.53,0-1,0c-.62,0-1.16-.07-1.62-.12a8.6,8.6,0,0,0-3.44.2,1.07,1.07,0,0,0-.33.11,6.09,6.09,0,0,0-2.24,1.57,12.25,12.25,0,0,0-.84,1,65.75,65.75,0,0,0-4.63,7.26c-2,3.54-4.1,7-6.14,10.58,2.41,3.27,4.81,6.55,7.23,9.82,8.8,12,12.17,23.14,11.84,39.39-.41,21-11.29,38.93-30,49.4-7.86,4.4-12.54,5.59-24.32,6.22-13.1.67-23.22-1.33-32.15-6.67-.6-.36-1.18-.73-1.76-1.11-1.09-.72-2.16-1.48-3.2-2.3a62.15,62.15,0,0,1-6.19-5.51c-13-13.23-16.8-22.87-16.77-43,0-14.64.66-18.1,4.91-26.41,6.44-12.59,20.93-25.84,32.65-29.85a39.51,39.51,0,0,1,4.45-1.14l1.52-.29c1.28-.23,2.67-.43,4.11-.61.58-.08,1.16-.16,1.74-.22,1.76-.2,3.58-.36,5.38-.5s3.64-.23,5.38-.28c.57,0,1.14,0,1.69,0,2.15,0,4.17,0,5.93.09l1.34.11c.71.06,1.36.15,1.94.24a10.2,10.2,0,0,1,1.87.46,3.16,3.16,0,0,1,.61.29h0a.3.3,0,0,0,.29,0,3.55,3.55,0,0,0,.39-.27,1.22,1.22,0,0,0,.17-.15h0a9.4,9.4,0,0,0,.78-.83c.3-.32.61-.7.94-1.13.19-.22.36-.44.54-.69h0c.38-.48.75-1,1.15-1.53l.61-.86c.41-.58.84-1.19,1.25-1.8a127.67,127.67,0,0,0,7.39-12.23l.64-1.38a5.66,5.66,0,0,0,.55-1.82c0-.58-3.21-4.65-7.14-9a74.6,74.6,0,0,1-16.62-30.42l-2.34-8c-4.81.19-9.64.37-14.46.54l-14.46.55-3.44,9.49c-.26.72-.54,1.42-.83,2.13a53,53,0,0,1-2.93,6.07c-.72,1.28-1.5,2.55-2.33,3.77-.41.6-.84,1.21-1.26,1.79q-1.32,1.79-2.74,3.44a57.56,57.56,0,0,1-7.86,7.52c-1.13.89-2.31,1.74-3.5,2.56s-2.41,1.57-3.67,2.29-2.52,1.39-3.81,2a58.72,58.72,0,0,1-14.26,4.74c-1.4.27-2.81.5-4.23.65a54.07,54.07,0,0,1-17.84-.84c-1-.21-1.88-.44-2.82-.7s-1.85-.55-2.78-.86a50.72,50.72,0,0,1-5.46-2.21c-22.09-10.49-32.91-26.73-34.12-51.2-.93-19.14,3.61-32.72,15-44.76,13.22-14,20.74-17.06,42-17.06,15.57,0,19.36.64,26.14,4.37,11.5,6.31,23.13,19.46,27.25,30.8l3.53,9.77,14.61.54,14.62.55c.41-2.07.84-4.12,1.25-6.16,2.08-10.16,9.75-24.4,17.6-32.67l7.38-7.79q-3.07-5.73-6.13-11.48t-6.14-11.46l-12,1.21c-19,1.94-36.21-4.73-48.12-16.7-.66-.67-1.3-1.34-1.93-2-10.41-11.54-16.22-27.41-14.84-45.05,2.41-31.07,24.12-53,54.15-54.82a62.18,62.18,0,0,1,20.39,2c1.25.35,2.48.75,3.68,1.18a49.08,49.08,0,0,1,8.61,4c1.09.64,2.16,1.33,3.2,2.06s2,1.5,3,2.31a53.63,53.63,0,0,1,5.62,5.38c.89,1,1.75,2,2.59,3.06a68.6,68.6,0,0,1,7.75,12.61c4.83,10.07,5.9,14.58,6,24.73.06,15.55-4.39,29.2-12.78,39.29-2.14,2.59-4.3,5.16-6.44,7.74,2,3.81,4,7.6,6,11.4.14.28.27.54.41.78.41.78.8,1.49,1.15,2.14.59,1.1,1.13,2.07,1.6,2.89.29.49.57,1,.83,1.35h0l.5.75q.35.48.66.87c1.94,2.34,3.52,2.13,7.26,1.46,14.91-2.71,26.3-3.09,36.23-1a53.16,53.16,0,0,1,6.51,1.72c1,.32,2,.69,3,1.07a1.81,1.81,0,0,0,.75.16,3.3,3.3,0,0,0,2.06-.92l.46-.43A14.4,14.4,0,0,0,1028,943c.38-.47.76-1,1.17-1.62,1-1.5,2.21-3.39,3.55-5.73,3.65-6.31,6.65-12.09,6.65-12.86s-2.4-3.74-5.34-6.63-7-9.27-9.06-14.17c-12.32-29.49-1.53-62.33,25.58-77.77.55-.32,1.08-.61,1.59-.89l1.43-.78c.81-.44,1.58-.82,2.33-1.14.35-.17.68-.32,1-.46s.78-.31,1.16-.44a.74.74,0,0,1,.22-.08l.52-.18.64-.2a28.55,28.55,0,0,1,5.72-1c.73-.06,1.52-.13,2.37-.17,2.66-.14,5.88-.17,10-.17,14.52,0,18.54.69,25.12,4.3a63.79,63.79,0,0,1,27.13,28.16c4.22,8.85,5,13,5.06,25.57,0,17.75-5.2,31.48-16.39,43a52.93,52.93,0,0,1-10.09,8.06c-.82.51-1.66,1-2.52,1.48a62.86,62.86,0,0,1-10.79,4.76c-.93.3-1.87.59-2.8.87-.47.14-1,.26-1.44.38-.93.25-1.88.46-2.81.66a48.9,48.9,0,0,1-20.88.15l-7.68-1.79c-2,3.52-4,7-6,10.55-3.29,5.81-6.26,11.22-6.61,12s2.68,5.14,6.7,9.65A74.62,74.62,0,0,1,1070.35,997c.78,2.65,1.54,5.31,2.32,8h27.73q2.58-6,5.14-12.1c9.17-21.68,28.65-34.86,51.55-34.91,13.93,0,24.84,3.35,34.82,10.74,8.52,6.29,17.72,18.52,21.12,28C1216.86,1007.53,1216.56,1027.47,1212.38,1038.78Z"/><path class="cls-2" d="M1964.53,377.25V381L1340.13,1587l-50.64-150.66-78,150.66-34.67-103.39,270.48-535.87,65-14.69,205-406.19-81.82-6.4H1392.79l-69.89,50.8H1080.65a139.26,139.26,0,0,0,58.42-114c0-48.43-24.16-91-60.83-115.69H1297.4L1354,268.23h354.6l96.85-135.35Z"/><path class="cls-2" d="M364.53,520.46l-81.82,6.4,205.36,406.8,62.28,14.08,270.48,535.87L786.09,1587l-76.56-147.84L659.93,1587,35.48,381v-3.7l159-244.37,96.86,135.35H646l56.64,73.29H929.77c-36.63,24.69-60.83,67.26-60.83,115.69,0,47.33,23.13,89.15,58.41,114.05H677.11l-69.91-50.8Z"/><path id="_2" data-name="2" class="cls-3" d="M1157.79,980.78l-.75,0c.45,0,.89,0,1.33,0A5.35,5.35,0,0,0,1157.79,980.78Zm-128.66-39.37c-.41.61-.81,1.15-1.17,1.62C1028.34,942.56,1028.72,942,1029.13,941.41Zm-5.24,4.73a2,2,0,0,1-.75-.16A1.81,1.81,0,0,0,1023.89,946.14Zm-4.57,144.68c-1.25.07-2.78.12-4.53.18C1016.54,1091,1018.07,1090.89,1019.32,1090.82ZM938.46,908a30.59,30.59,0,0,1-3.42,2A23.69,23.69,0,0,0,938.46,908Zm-2.79,217.17a29.59,29.59,0,0,0-2.76-1.25C933.85,1124.25,934.76,1124.66,935.67,1125.12Zm-2.76-1.25a26.81,26.81,0,0,0-3.77-1.24A33.23,33.23,0,0,1,932.91,1123.87Zm-3.77-1.24a22.64,22.64,0,0,0-2.55-.53C927.44,1122.23,928.3,1122.42,929.14,1122.63Zm-8.35-1c.35,0,.7,0,1.06,0a5.62,5.62,0,0,0-.58,0Zm-.14,0c-.93,0-1.85.06-2.79.16C918.79,1121.71,919.74,1121.65,920.65,1121.64Zm-7.58-22.57c1.76-.2,3.58-.36,5.38-.5C916.65,1098.69,914.83,1098.86,913.07,1099.07Zm-23.22,109.34c-1.09-.72-2.16-1.48-3.2-2.3C887.69,1206.94,888.76,1207.7,889.85,1208.41Zm-14.31-143.92c-1.13.89-2.31,1.74-3.5,2.56C873.25,1066.25,874.41,1065.39,875.54,1064.49Zm-45.63-12.78c-1.09-.37-2.16-.79-3.2-1.25C827.75,1050.93,828.82,1051.34,829.91,1051.71Z"/><path class="cls-2" d="M854.61,1049.91c-.5.26-1,.49-1.53.72a33.85,33.85,0,0,1-5.73,1.92c-.61.14-1.21.26-1.82.37s-1.21.2-1.82.26a31.42,31.42,0,0,1-13.8-1.47c-1.09-.37-2.16-.78-3.2-1.25a37.3,37.3,0,0,1-7.37-4.48c-.91-.73-1.78-1.48-2.63-2.28h0c-.84-.81-1.64-1.65-2.42-2.52a37.63,37.63,0,0,1-9.41-24.78,33.38,33.38,0,0,1,.21-4.11c.11-.91.23-1.82.4-2.74a37.41,37.41,0,0,1,1-4.16C809,997,821,985.07,829.42,982.66l1-.26c.93-.26,1.84-.49,2.69-.69l.84-.18c.57-.13,1.1-.22,1.64-.31l.78-.12a23.42,23.42,0,0,1,8.65.32c.57.14,1.15.29,1.74.47a56.32,56.32,0,0,1,8,3.25C881.79,998.1,881.72,1036.41,854.61,1049.91Z"/><path class="cls-2" d="M949.47,1137.17c4.62,6.22,5.21,8.56,5.21,20.42s-.59,14.2-5.21,20.44c-.47.64-1,1.27-1.47,1.88s-1,1.19-1.49,1.76c-1,1.13-2.08,2.19-3.15,3.16a41,41,0,0,1-3.32,2.71c-.57.41-1.15.8-1.73,1.16s-1.16.72-1.76,1.06-1.19.64-1.79.93l-.9.41c-.61.26-1.22.52-1.85.75-.46.17-.91.34-1.39.48s-1,.29-1.42.41h0c-.32.09-.64.17-.94.23-.57.14-1.13.24-1.7.33-.83.14-1.66.24-2.5.31l-.22,0q-1.12.09-2.25.09H921l-1.22,0c-.59,0-1.18-.07-1.77-.13-.77-.07-1.53-.18-2.31-.32-1.15-.2-2.31-.46-3.47-.78-16.19-4.46-25.79-17.13-25.7-33.94,0-5.65,1.15-12.84,2.46-15.94,3.37-7.95,14.27-17.21,23.13-19.67a31.4,31.4,0,0,1,3.47-.78c.77-.14,1.53-.25,2.3-.33.94-.1,1.86-.15,2.79-.16h.14l.48,0a5.62,5.62,0,0,1,.58,0h.58l1.14.06h0c.86.06,1.7.17,2.52.31a2.36,2.36,0,0,1,.45.08,22.64,22.64,0,0,1,2.55.53,26.81,26.81,0,0,1,3.77,1.24,29.59,29.59,0,0,1,2.76,1.25c.3.15.61.31.9.48.59.32,1.19.67,1.77,1s1.16.74,1.73,1.16,1.13.82,1.68,1.27,1.1.9,1.64,1.39h0c.54.49,1.07,1,1.59,1.51s1,1.06,1.55,1.62,1,1.13,1.49,1.73S949,1136.53,949.47,1137.17Z"/><path class="cls-2" d="M955.53,877.68c0,10.29-5.49,20.85-14.94,28.68-.69.56-1.39,1.1-2.13,1.59a23.69,23.69,0,0,1-3.42,2,29.15,29.15,0,0,1-3.68,1.48c-.63.2-1.26.4-1.9.57s-1.3.31-2,.44a35.6,35.6,0,0,1-10.62.43,34.43,34.43,0,0,1-3.92-.64,35.42,35.42,0,0,1-12.68-5.47,32.41,32.41,0,0,1-3.11-2.47c-.49-.44-1-.9-1.43-1.37a31.34,31.34,0,0,1-2.59-3c-3.8-5.15-8.94-20-8.31-24.06.07-.52.73-3.46,1.46-6.56,2-8.35,4.74-12.89,11.87-19.32a34,34,0,0,1,3.16-2.56c.7-.51,1.42-1,2.14-1.43a32.94,32.94,0,0,1,7-3.3c.86-.28,1.72-.52,2.59-.74a33.83,33.83,0,0,1,31.7,9.24c.4.39.81.81,1.2,1.23s.76.86,1.13,1.3c.55.68,1.08,1.36,1.59,2.07s1,1.45,1.45,2.2a35.22,35.22,0,0,1,1.88,3.55c.2.41.38.82.55,1.23s.46,1.12.66,1.7a34.16,34.16,0,0,1,1.08,3.56A39,39,0,0,1,955.53,877.68Z"/><path class="cls-2" d="M1050.25,1017.16c0,18.39-13.14,39-30,47.07-1.22.58-2.47,1.12-3.73,1.59-.82.31-1.68.6-2.52.87l-1.27.37c-.86.24-1.71.46-2.58.64a50.71,50.71,0,0,1-33.19-4.22c-1.62-.81-3.21-1.69-4.76-2.66a48.88,48.88,0,0,1-19-22c-3.92-9.11-5.72-28.3-3.35-35.73A56.19,56.19,0,0,1,957,988.45c.48-.69,1-1.36,1.46-2a53.6,53.6,0,0,1,12.59-12.09c1.13-.78,2.28-1.5,3.46-2.17s2.37-1.31,3.59-1.89,2.45-1.12,3.7-1.59a48.84,48.84,0,0,1,22.95-3c1.3.14,2.61.34,3.91.6a47.61,47.61,0,0,1,11.6,3.85C1037.11,978.18,1050.25,998.79,1050.25,1017.16Z"/><path class="cls-2" d="M1045.89,1142.61c6.94-13.07,19.29-21.45,31.66-21.45,14.29,0,31.35,13.72,33.82,27.15,3.39,18.64-3.41,33.57-18.85,41.42-1,.5-2,.94-3,1.36-.65.26-1.31.52-2,.75a35.8,35.8,0,0,1-3.91,1.11,27.36,27.36,0,0,1-2.91.52,29.21,29.21,0,0,1-15.36-2.14,27.66,27.66,0,0,1-3-1.44,42.67,42.67,0,0,1-12.86-11.29c-4.63-5.92-5.65-9-6.13-18.73C1043.08,1151.72,1043.79,1146.55,1045.89,1142.61Z"/><path class="cls-2" d="M1048.34,896.82c-6-9-6.87-26.71-1.82-36.25,6.13-11.58,19.47-20.33,31-20.33,12.44,0,29.12,12,32.87,23.73,1.17,3.65,1.77,11.13,1.33,16.61a39.31,39.31,0,0,1-1.93,9.44,28,28,0,0,1-1.07,2.81,33.92,33.92,0,0,1-7.32,10.72,31,31,0,0,1-3.58,3c-.63.47-1.27.9-1.91,1.31s-1.31.81-2,1.18c0,0,0,0,0,0-.63.33-1.25.65-1.89.94a35.25,35.25,0,0,1-3.44,1.38c-.85.29-1.72.53-2.59.75l-.27.07c-.79.19-1.58.35-2.39.49l-.31,0c-.8.13-1.61.22-2.42.29l-.27,0c-.87.07-1.74.1-2.61.11h-.09c-.51,0-1,0-1.55-.05-.18,0-.37,0-.55,0l-1.45-.12-.67-.08-1.35-.19q-1-.16-2-.39c-.84-.18-1.67-.41-2.49-.67-.61-.2-1.23-.4-1.82-.63s-1.21-.49-1.81-.75-1-.47-1.57-.75-.83-.41-1.24-.65a35.5,35.5,0,0,1-7.44-5.57c-.55-.53-1.09-1.1-1.62-1.68A41.07,41.07,0,0,1,1048.34,896.82Z"/><path class="cls-2" d="M1192.57,1011.87a36.35,36.35,0,0,1,.43,5.55,34.89,34.89,0,0,1-3,14.08,32.94,32.94,0,0,1-1.56,3.15,36.38,36.38,0,0,1-2.87,4.39q-.39.53-.81,1c-.55.68-1.13,1.33-1.73,2q-.43.48-.9.93c-8.91,8.85-22,13.1-34.36,8.91-20.17-6.84-30-30.07-21.21-50,4-9.14,15.76-18.64,25.27-20.47.84-.17,1.67-.28,2.51-.37l1.07-.1c.53,0,1.07-.07,1.6-.08l.75,0a5.35,5.35,0,0,1,.58,0c.58,0,1.17,0,1.75.06l1.17.12c.39,0,.77.09,1.15.16s.75.12,1.12.18.84.17,1.25.26.64.14,1,.23c.74.18,1.46.38,2.17.62a35.92,35.92,0,0,1,14.4,9.12c.42.41.81.84,1.2,1.26a40.08,40.08,0,0,1,3.21,4.16c.65,1,1.27,2,1.82,3a36.57,36.57,0,0,1,2.18,4.86c.22.55.41,1.12.58,1.7A36.83,36.83,0,0,1,1192.57,1011.87Z"/><path class="cls-2" d="M1390.56,587.86l-69.91,50.8H678.38l-69.9-50.8H365.86L518,854.83l76.78,15.07,305.64,631.69-32.85,135.35,132,245.38,132-245.38-32.91-135.35L1404.3,869.9l76.78-15.07,152.14-267Zm-178.18,450.92a59.29,59.29,0,0,1-11.64,19.25c-.49.53-1,1.07-1.52,1.6a59.37,59.37,0,0,1-8.3,7.09q-1.79,1.24-3.64,2.37a55.58,55.58,0,0,1-32,8c-1.12-.08-2.23-.19-3.35-.32h0c-1.12-.14-2.24-.32-3.35-.54s-2.23-.47-3.35-.76c-19.84-5.23-32.84-16.8-40.66-36.23q-2-4.93-4-9.88h-27.87c-.78,2.66-1.54,5.31-2.32,8a74.86,74.86,0,0,1-16.79,30.57c-2.44,2.74-4.9,5.46-7.35,8.19q3.48,6.11,7,12.22c.3.53.59,1,.88,1.54a69.8,69.8,0,0,0,4.16,6.62c.18.25.37.48.54.69a5.88,5.88,0,0,0,.52.6c.15.18.32.35.48.52a6.64,6.64,0,0,0,.69.58,3.6,3.6,0,0,0,1.49.64,3.35,3.35,0,0,0,1,0l.52-.11a2.26,2.26,0,0,0,.37-.11,27.26,27.26,0,0,1,6.6-1l1.49-.07a90.61,90.61,0,0,1,16.33,1.08q1.23.19,2.43.42a51.72,51.72,0,0,1,6.78,1.73c12.42,4.25,27.48,18.53,33,31.37,5.88,13.51,6.07,35.93.43,48.58-5.24,11.73-16.61,24.08-27.32,29.68a41.55,41.55,0,0,1-4.26,1.91c-1.38.52-2.83,1-4.31,1.4-.66.19-1.32.37-2,.52-1.24.31-2.49.57-3.78.78s-2.43.4-3.65.54c-.73.09-1.45.17-2.19.23l-1.49.1a68.59,68.59,0,0,1-10.14-.09l-1.86-.18-1.47-.18c-1-.14-1.94-.31-2.89-.48a43.88,43.88,0,0,1-10.44-3.27c-13.44-6.33-23.82-16.43-29.87-29.12-4.28-9-5-12.87-5-25.58.1-17,3.74-27.53,13.5-38.95l5.91-6.94q-3.09-5.39-6.22-10.75c-.15-.27-.31-.53-.46-.79-.29-.51-.58-1-.85-1.45-2-3.47-3.41-5.52-4.74-6.7a6.42,6.42,0,0,0-.54-.41v0a5.22,5.22,0,0,0-1.09-.58,9.65,9.65,0,0,0-4.19-.34l-.61,0c-.49,0-1,.08-1.68.11-1.25.07-2.78.12-4.53.18h-.07c-7.55.21-18.87.24-27.47.09-1,0-2,0-3-.06l-1.36,0c-.23,0-.45,0-.67,0l-1.24,0h0l-1.15,0-.53,0-1,0c-.62,0-1.16-.07-1.62-.12a8.6,8.6,0,0,0-3.44.2,1.07,1.07,0,0,0-.33.11,6.09,6.09,0,0,0-2.24,1.57,12.25,12.25,0,0,0-.84,1,65.75,65.75,0,0,0-4.63,7.26c-2,3.54-4.1,7-6.14,10.58,2.41,3.27,4.81,6.55,7.23,9.82,8.8,12,12.17,23.14,11.84,39.39-.41,21-11.29,38.93-30,49.4-7.86,4.4-12.54,5.59-24.32,6.22-13.1.67-23.22-1.33-32.15-6.67-.6-.36-1.18-.73-1.76-1.11-1.09-.72-2.16-1.48-3.2-2.3a62.15,62.15,0,0,1-6.19-5.51c-13-13.23-16.8-22.87-16.77-43,0-14.64.66-18.1,4.91-26.41,6.44-12.59,20.93-25.84,32.65-29.85a39.51,39.51,0,0,1,4.45-1.14l1.52-.29c1.28-.23,2.67-.43,4.11-.61.58-.08,1.16-.16,1.74-.22,1.76-.2,3.58-.36,5.38-.5s3.64-.23,5.38-.28c.57,0,1.14,0,1.69,0,2.15,0,4.17,0,5.93.09l1.34.11c.71.06,1.36.15,1.94.24a10.2,10.2,0,0,1,1.87.46,3.16,3.16,0,0,1,.61.29h0a.3.3,0,0,0,.29,0,3.55,3.55,0,0,0,.39-.27,1.22,1.22,0,0,0,.17-.15h0a9.4,9.4,0,0,0,.78-.83c.3-.32.61-.7.94-1.13.19-.22.36-.44.54-.69h0c.38-.48.75-1,1.15-1.53l.61-.86c.41-.58.84-1.19,1.25-1.8a127.67,127.67,0,0,0,7.39-12.23l.64-1.38a5.66,5.66,0,0,0,.55-1.82c0-.58-3.21-4.65-7.14-9a74.6,74.6,0,0,1-16.62-30.42l-2.34-8c-4.81.19-9.64.37-14.46.54l-14.46.55-3.44,9.49c-.26.72-.54,1.42-.83,2.13a53,53,0,0,1-2.93,6.07c-.72,1.28-1.5,2.55-2.33,3.77-.41.6-.84,1.21-1.26,1.79q-1.32,1.79-2.74,3.44a57.56,57.56,0,0,1-7.86,7.52c-1.13.89-2.31,1.74-3.5,2.56s-2.41,1.57-3.67,2.29-2.52,1.39-3.81,2a58.72,58.72,0,0,1-14.26,4.74c-1.4.27-2.81.5-4.23.65a54.07,54.07,0,0,1-17.84-.84c-1-.21-1.88-.44-2.82-.7s-1.85-.55-2.78-.86a50.72,50.72,0,0,1-5.46-2.21c-22.09-10.49-32.91-26.73-34.12-51.2-.93-19.14,3.61-32.72,15-44.76,13.22-14,20.74-17.06,42-17.06,15.57,0,19.36.64,26.14,4.37,11.5,6.31,23.13,19.46,27.25,30.8l3.53,9.77,14.61.54,14.62.55c.41-2.07.84-4.12,1.25-6.16,2.08-10.16,9.75-24.4,17.6-32.67l7.38-7.79q-3.07-5.73-6.13-11.48t-6.14-11.46l-12,1.21c-19,1.94-36.21-4.73-48.12-16.7-.66-.67-1.3-1.34-1.93-2-10.41-11.54-16.22-27.41-14.84-45.05,2.41-31.07,24.12-53,54.15-54.82a62.18,62.18,0,0,1,20.39,2c1.25.35,2.48.75,3.68,1.18a49.08,49.08,0,0,1,8.61,4c1.09.64,2.16,1.33,3.2,2.06s2,1.5,3,2.31a53.63,53.63,0,0,1,5.62,5.38c.89,1,1.75,2,2.59,3.06a68.6,68.6,0,0,1,7.75,12.61c4.83,10.07,5.9,14.58,6,24.73.06,15.55-4.39,29.2-12.78,39.29-2.14,2.59-4.3,5.16-6.44,7.74,2,3.81,4,7.6,6,11.4.14.28.27.54.41.78.41.78.8,1.49,1.15,2.14.59,1.1,1.13,2.07,1.6,2.89.29.49.57,1,.83,1.35h0l.5.75q.35.48.66.87c1.94,2.34,3.52,2.13,7.26,1.46,14.91-2.71,26.3-3.09,36.23-1a53.16,53.16,0,0,1,6.51,1.72c1,.32,2,.69,3,1.07a1.81,1.81,0,0,0,.75.16,3.3,3.3,0,0,0,2.06-.92l.46-.43A14.4,14.4,0,0,0,1028,943c.38-.47.76-1,1.17-1.62,1-1.5,2.21-3.39,3.55-5.73,3.65-6.31,6.65-12.09,6.65-12.86s-2.4-3.74-5.34-6.63-7-9.27-9.06-14.17c-12.32-29.49-1.53-62.33,25.58-77.77.55-.32,1.08-.61,1.59-.89l1.43-.78c.81-.44,1.58-.82,2.33-1.14.35-.17.68-.32,1-.46s.78-.31,1.16-.44a.74.74,0,0,1,.22-.08l.52-.18.64-.2a28.55,28.55,0,0,1,5.72-1c.73-.06,1.52-.13,2.37-.17,2.66-.14,5.88-.17,10-.17,14.52,0,18.54.69,25.12,4.3a63.79,63.79,0,0,1,27.13,28.16c4.22,8.85,5,13,5.06,25.57,0,17.75-5.2,31.48-16.39,43a52.93,52.93,0,0,1-10.09,8.06c-.82.51-1.66,1-2.52,1.48a62.86,62.86,0,0,1-10.79,4.76c-.93.3-1.87.59-2.8.87-.47.14-1,.26-1.44.38-.93.25-1.88.46-2.81.66a48.9,48.9,0,0,1-20.88.15l-7.68-1.79c-2,3.52-4,7-6,10.55-3.29,5.81-6.26,11.22-6.61,12s2.68,5.14,6.7,9.65A74.62,74.62,0,0,1,1070.35,997c.78,2.65,1.54,5.31,2.32,8h27.73q2.58-6,5.14-12.1c9.17-21.68,28.65-34.86,51.55-34.91,13.93,0,24.84,3.35,34.82,10.74,8.52,6.29,17.72,18.52,21.12,28C1216.86,1007.53,1216.56,1027.47,1212.38,1038.78Z"/><path class="cls-2" d="M1964.53,377.25V381L1340.13,1587l-50.64-150.66-78,150.66-34.67-103.39,270.48-535.87,65-14.69,205-406.19-81.82-6.4H1392.79l-69.89,50.8H1080.65a139.26,139.26,0,0,0,58.42-114c0-48.43-24.16-91-60.83-115.69H1297.4L1354,268.23h354.6l96.85-135.35Z"/><path class="cls-2" d="M364.53,520.46l-81.82,6.4,205.36,406.8,62.28,14.08,270.48,535.87L786.09,1587l-76.56-147.84L659.93,1587,35.48,381v-3.7l159-244.37,96.86,135.35H646l56.64,73.29H929.77c-36.63,24.69-60.83,67.26-60.83,115.69,0,47.33,23.13,89.15,58.41,114.05H677.11l-69.91-50.8Z"/><path id="_2-2" data-name="2" class="cls-3" d="M1157.79,980.78l-.75,0c.45,0,.89,0,1.33,0A5.35,5.35,0,0,0,1157.79,980.78Zm-128.66-39.37c-.41.61-.81,1.15-1.17,1.62C1028.34,942.56,1028.72,942,1029.13,941.41Zm-5.24,4.73a2,2,0,0,1-.75-.16A1.81,1.81,0,0,0,1023.89,946.14Zm-4.57,144.68c-1.25.07-2.78.12-4.53.18C1016.54,1091,1018.07,1090.89,1019.32,1090.82ZM938.46,908a30.59,30.59,0,0,1-3.42,2A23.69,23.69,0,0,0,938.46,908Zm-2.79,217.17a29.59,29.59,0,0,0-2.76-1.25C933.85,1124.25,934.76,1124.66,935.67,1125.12Zm-2.76-1.25a26.81,26.81,0,0,0-3.77-1.24A33.23,33.23,0,0,1,932.91,1123.87Zm-3.77-1.24a22.64,22.64,0,0,0-2.55-.53C927.44,1122.23,928.3,1122.42,929.14,1122.63Zm-8.35-1c.35,0,.7,0,1.06,0a5.62,5.62,0,0,0-.58,0Zm-.14,0c-.93,0-1.85.06-2.79.16C918.79,1121.71,919.74,1121.65,920.65,1121.64Zm-7.58-22.57c1.76-.2,3.58-.36,5.38-.5C916.65,1098.69,914.83,1098.86,913.07,1099.07Zm-23.22,109.34c-1.09-.72-2.16-1.48-3.2-2.3C887.69,1206.94,888.76,1207.7,889.85,1208.41Zm-14.31-143.92c-1.13.89-2.31,1.74-3.5,2.56C873.25,1066.25,874.41,1065.39,875.54,1064.49Zm-45.63-12.78c-1.09-.37-2.16-.79-3.2-1.25C827.75,1050.93,828.82,1051.34,829.91,1051.71Z"/><g class="cls-4"><g class="cls-5"><g class="cls-6"><path id="_40" data-name="40" class="cls-7" d="M599.93,2971.46c2.78,48.29-1.78,194.58-7.9,253.48-11.7,112.45-39.52,246.17-71.17,342.08-105,318.29-303.19,598-569.59,804.12-318.84,246.66-730.66,371.51-1133.41,343.61C-1453.27,4696-1707.37,4615.92-1940,4476c-393.87-236.9-679.9-641.2-768.44-1086.21-53.3-267.86-45.83-514.91,23.67-783,32.12-123.86,104-292.89,173.62-408.36,256-424.57,675.54-712.28,1156-792.86,112.5-18.87,164.53-23,288.42-22.72,158.29.32,265.25,13.29,410,49.72,411.24,103.54,777.2,370.2,1003.31,731.07Q574.14,2526.86,599.93,2971.46ZM-2694.52,2922c-4.49,56.33-2.1,236.4,3.92,294.68a1616.43,1616.43,0,0,0,357.95,859.07c237.73,290,563.71,486.85,932,562.7q375.79,77.4,748.17-20.37c343.27-90,648.82-292.91,872.07-579.17,181.56-232.8,297.72-522.82,326.85-816.05,39.17-394.45-52.59-763.16-269.79-1083.95-108.68-160.51-270.78-321.85-434.55-432.5-226-152.71-469.31-241.26-750.11-273-59.22-6.69-262.46-6.79-323.53-.16-324,35.18-608.73,151.9-859.33,352.25-124.19,99.29-221.92,203.52-318.37,339.56C-2569.64,2351.24-2671.72,2636.45-2694.52,2922Z"/><path id="_40-2" data-name="40" class="cls-7" d="M470.42,2969.4c6.14,98.3-1.35,233.25-18.62,335.46C381.92,3718.43,139,4094.31-208.53,4326.75c-280,187.22-599.57,275.58-940.14,259.89-511.71-23.56-986.18-307.91-1247.46-747.6-147.72-248.61-217.24-502.06-217-791.33.1-144.42,13-250.16,46-378.29,99.23-384.85,344.17-718.37,682.33-929.09,191.78-119.51,399.66-190.84,647.07-222,66.15-8.33,241.79-9.62,313.24-2.28,357.79,36.76,675.31,184.15,928.81,431.18,208.64,203.3,350.29,447.64,420.58,725.46C450.42,2773.73,463.53,2859.06,470.42,2969.4Zm-3038.93,0c-2.6,39.66.92,181.63,5.67,228.75,23.59,233.87,105,464.72,234,663.55,238.14,367.06,628.66,613.65,1060.16,669.44,227,29.35,446.22,8.85,665.62-62.25,275.7-89.35,528-265.29,707.43-493.26C298,3729.52,405.8,3445.06,425.52,3128c10.67-171.46-15.15-363.43-72.68-540.56-79-243.37-222.37-466.08-410.62-638.06-237.14-216.66-528.45-348.84-850.28-385.83-74.34-8.54-232.73-9.73-302.93-2.26-192.11,20.43-354.43,66-517.24,145.27-153.09,74.5-279.14,165-404,290C-2393.16,2257.78-2543.89,2593.9-2568.51,2969.4Z"/><path id="_40-3" data-name="40" class="cls-7" d="M206.58,2926.13c6.45,68,2.22,245.73-7.31,307.25C162.3,3472,67,3685.69-82.88,3865.83c-37.7,45.32-122.49,129.68-170.44,169.59-193,160.59-430.13,260.86-681.53,288.14-64.44,7-222.33,5.93-288.15-1.94-333.64-39.92-635.83-208.25-849.73-473.34-151.72-188-245-412.72-273.46-658.38-7.38-63.8-8.51-194.55-2.25-260.57,23.92-252.24,123.89-495.33,282.71-687.44,41.79-50.55,133.5-142.63,181.32-182.06,186.17-153.49,409.06-248.85,659-281.94,72.38-9.59,234-9.58,309.11,0,337.78,43.15,626.6,204.79,847.65,474.36C17.41,2357.22,100,2507.19,145.42,2640.81,171.19,2716.68,199,2846.62,206.58,2926.13Zm-2513.67,41.21c-4.6,76.21-4.6,78.84-.19,151.39,7.21,118.5,23.32,201.78,61.6,318.46,60.29,183.77,155.42,337.94,295.93,479.57,111.58,112.49,227.56,194.05,367,258.11,298.71,137.21,653.19,146.76,961.13,25.88C-189.18,4031,119,3624.16,161.38,3167.23c5.42-58.45,5.4-182.92,0-237.57-22.68-228.09-113.16-455.1-252.5-633.47-66.23-84.79-166.31-181.8-254.31-246.52-281.09-206.73-644.79-282.66-991.08-206.91-69.94,15.3-174.44,49.16-233,75.49-137.88,62-250.16,138.69-362.29,247.46-106.07,102.9-181.18,204.32-244.8,330.54C-2253.6,2648.94-2297.42,2807.2-2307.09,2967.34Z"/><path id="_40-4" data-name="40" class="cls-7" d="M81.14,2128.87c11,30.87,3.61,69.92-17.78,94-10.91,12.28-46.49,27.23-64.69,27.17-33.19-.1-48.5-11.64-151.75-114.41-54-53.74-101.75-104.59-106.13-113-15.63-30-9.26-75.77,14.16-101.54,23.12-25.44,73.33-33.78,104.78-17.4,8.42,4.37,60.37,53.17,115.46,108.43C50.11,2087.31,76.81,2116.72,81.14,2128.87Zm-290.92-175.73c-9.59,9.58-12.05,15.67-12.05,29.79,0,17.67.39,18.13,100,117.78l100,100H-2.08c22,0,37.38-11.16,42.24-30.56C45.83,2147.62,38.48,2138-60.41,2039l-97.73-97.89h-19.8C-194.32,1941.09-199.81,1943.17-209.78,1953.14Z"/></g></g></g><g class="cls-4"><g class="cls-8"><g class="cls-6"><path id="_40-5" data-name="40" class="cls-9" d="M2669,2971.46c2.79,48.29-1.78,194.58-7.9,253.48-11.7,112.45-39.51,246.17-71.17,342.08-105,318.29-303.19,598-569.59,804.12-318.84,246.66-730.66,371.51-1133.4,343.61C615.75,4696,361.66,4615.92,129,4476c-393.87-236.9-679.9-641.2-768.44-1086.21-53.3-267.86-45.82-514.91,23.68-783,32.11-123.86,104-292.89,173.61-408.36,256-424.57,675.54-712.28,1156-792.86,112.5-18.87,164.53-23,288.42-22.72,158.29.32,265.25,13.29,410,49.72,411.24,103.54,777.2,370.2,1003.31,731.07Q2643.16,2526.86,2669,2971.46ZM-625.5,2922c-4.49,56.33-2.1,236.4,3.92,294.68a1616.43,1616.43,0,0,0,358,859.07c237.73,290,563.71,486.85,932,562.7q375.81,77.4,748.18-20.37c343.26-90,648.81-292.91,872.06-579.17,181.56-232.8,297.72-522.82,326.85-816.05,39.18-394.45-52.59-763.16-269.79-1083.95-108.68-160.51-270.78-321.85-434.55-432.5-226-152.71-469.31-241.26-750.11-273-59.22-6.69-262.46-6.79-323.53-.16-324,35.18-608.73,151.9-859.33,352.25-124.19,99.29-221.91,203.52-318.37,339.56C-500.62,2351.24-602.7,2636.45-625.5,2922Z"/><path id="_40-6" data-name="40" class="cls-9" d="M2539.44,2969.4c6.14,98.3-1.35,233.25-18.62,335.46-69.88,413.57-312.77,789.45-660.33,1021.89-280,187.22-599.57,275.58-940.13,259.89C408.64,4563.08-65.83,4278.73-327.11,3839c-147.72-248.61-217.24-502.06-217-791.33.1-144.42,12.95-250.16,46-378.29,99.23-384.85,344.17-718.37,682.33-929.09,191.78-119.51,399.66-190.84,647.08-222,66.15-8.33,241.78-9.62,313.23-2.28,357.79,36.76,675.32,184.15,928.82,431.18,208.63,203.3,350.28,447.64,420.57,725.46C2519.44,2773.73,2532.55,2859.06,2539.44,2969.4Zm-3038.93,0c-2.6,39.66.92,181.63,5.67,228.75,23.59,233.87,105,464.72,234,663.55,238.14,367.06,628.67,613.65,1060.16,669.44,227,29.35,446.22,8.85,665.62-62.25,275.7-89.35,528-265.29,707.44-493.26,193.66-246.11,301.43-530.57,321.15-847.68,10.67-171.46-15.15-363.43-72.68-540.56-79.05-243.37-222.37-466.08-410.62-638.06C1774.1,1732.67,1482.79,1600.49,1161,1563.5c-74.34-8.54-232.73-9.73-302.92-2.26-192.12,20.43-354.44,66-517.25,145.27-153.09,74.5-279.14,165-404,290C-324.14,2257.78-474.87,2593.9-499.49,2969.4Z"/><path id="_40-7" data-name="40" class="cls-9" d="M2275.6,2926.13c6.45,68,2.22,245.73-7.3,307.25-37,238.64-132.3,452.31-282.16,632.45-37.7,45.32-122.49,129.68-170.44,169.59-193,160.59-430.13,260.86-681.53,288.14-64.44,7-222.33,5.93-288.14-1.94C512.38,4281.7,210.2,4113.37-3.71,3848.28c-151.72-188-245-412.72-273.46-658.38-7.38-63.8-8.51-194.55-2.25-260.57C-255.5,2677.09-155.53,2434,3.29,2241.89c41.79-50.55,133.5-142.63,181.32-182.06,186.18-153.49,409.06-248.85,659-281.94,72.39-9.59,234-9.58,309.11,0,337.78,43.15,626.6,204.79,847.65,474.36,86.06,104.95,168.69,254.92,214.07,388.54C2240.21,2716.68,2268.06,2846.62,2275.6,2926.13Zm-2513.67,41.21c-4.6,76.21-4.6,78.84-.19,151.39,7.21,118.5,23.32,201.78,61.6,318.46,60.29,183.77,155.43,337.94,295.93,479.57,111.58,112.49,227.57,194.05,367,258.11,298.71,137.21,653.19,146.76,961.13,25.88,432.43-169.76,740.64-576.59,783-1033.52,5.42-58.45,5.4-182.92,0-237.57-22.69-228.09-113.17-455.1-252.51-633.47-66.23-84.79-166.31-181.8-254.31-246.52-281.08-206.73-644.79-282.66-991.08-206.91-69.94,15.3-174.44,49.16-233,75.49-137.88,62-250.17,138.69-362.29,247.46C31.1,2268.61-44,2370-107.62,2496.25-184.58,2648.94-228.4,2807.2-238.07,2967.34Z"/><path id="_14" data-name="14" d="M2049.05,2948.8c5.67,51.32,2.09,203.14-6,255.53-9.26,59.82-34.42,158.85-53.41,210.19-24.12,65.22-72.72,160.23-112.83,220.61-165.14,248.54-426.4,413.13-726.13,457.43-264.31,39.06-541.88-26.68-762.47-180.58-75.3-52.53-156.72-129.72-218.51-207.16C27.31,3526.41-49.61,3312.47-55.78,3077.72c-5-188.92,32-350.47,118.32-517.24,51.37-99.23,108.19-176.35,189.19-256.83,180.67-179.5,403.5-282.41,659.88-304.77,164.06-14.31,344.26,14,492.52,77.38,126.18,53.94,205,104.42,307.16,196.61C1902.22,2445.25,2019.33,2679.61,2049.05,2948.8ZM281,2394.46c-31.84-17.52-38.94-10.31-46-3.09-11.72,11.9-34.28,39.18-50.13,60.62C70.92,2606.14,5,2787.37-9.83,2986.92Q-11.25,3006-12.66,3025h334.9l-166.92,2.11-166.92,2.11v41l333.84,4.21H-11.6V3092c0,27.86,11.61,119.67,20.9,165.23,19.77,97,71.73,227.52,127.42,320.05,21.33,35.44,79.37,114.08,103,139.61q6.45,6.95,12.88,13.9l20.15-17.5q-4.53,5.22-9.08,10.43l-9.07,10.43q7.64,7.64,15.28,15.28t15.28,15.28l119.35-119.29c65.63-65.61,120.33-118,123.78-113.47L407.76,3650.48,287.21,3769l39.09,34.43c41.41,36.46,105.32,83.88,146.38,108.6,73.58,44.29,183.93,90.59,268,112.43,90.24,23.45,218.79,38.28,232.75,26.86l2.4,4.12c1.32,2.27,11.39,4.13,22.37,4.13,13.94,0,20.67-1.87,24.68-12.37,0,1,0,2.06,0,3.09,0,6.59,62.41,4.88,116.94-3.2,110.23-16.34,205-45.42,301.4-92.54,92.29-45.08,146.35-80.92,225.86-149.75,25.17-21.79,39.54-37.06,35.86-46.1l5.57,2.26c8.79,3.58,32.22-26.55,27.4-35.23l3.09.52c11.67,2,84-88.85,124-155.83q123.62-206.66,142.89-459.83l2.76-36.06H1983.2l12.36-2.32c11.73-2.2,12.37-3.36,12.37-22.37,0-14-1.86-20.75-12.37-24.77l6.44-2c6.89-2.18,6.46-18.27-2.63-96.89-13.33-115.26-53.69-245-107.68-346.21-53-99.21-140.22-214.65-155.78-206.07l.69-6.27c1.09-9.92-21.75-30.82-33.66-30.82l.52-3.1c.28-1.7-11.31-14.46-25.76-28.36-156.65-150.69-398.46-252.23-623.89-262l-28.85-1.25q1,170,2.06,340h-3.1c-1.69,0-3.59-77.14-4.21-171.41l-1.11-171.43-45.16,4.88-27.82.12c-152.8.68-352.67,64.67-497.45,159.29-81.45,53.23-161.1,121.78-154.78,133.22l-3.09-.55c-1.7-.3-10.05,7.12-34,33.52h0Z"/><path id="_40-8" data-name="40" class="cls-9" d="M2150.16,2128.87c11,30.87,3.61,69.92-17.78,94-10.9,12.28-46.49,27.23-64.69,27.17-33.19-.1-48.5-11.64-151.75-114.41-54-53.74-101.75-104.59-106.13-113-15.63-30-9.26-75.77,14.16-101.54,23.12-25.44,73.33-33.78,104.79-17.4,8.41,4.37,60.36,53.17,115.45,108.43C2119.13,2087.31,2145.83,2116.72,2150.16,2128.87Zm-290.92-175.73c-9.58,9.58-12,15.67-12,29.79,0,17.67.39,18.13,100,117.78l100,100h19.67c21.95,0,37.38-11.16,42.25-30.56,5.66-22.57-1.69-32.16-100.58-131.21l-97.73-97.89h-19.79C1874.7,1941.09,1869.21,1943.17,1859.24,1953.14Z"/><path id="_40-9" data-name="40" class="cls-9" d="M185,1940.71c12.23,23.37,12.79,56.94,1.34,80.59-5.14,10.63-45.17,53.6-108.19,116.14C-12.59,2227.48-24,2237.4-44,2244c-55.62,18.18-108.75-15.92-114.7-73.64-4.49-43.45.48-50.68,109.68-159.67,57.67-57.56,104.58-101,114.74-106.13,12.24-6.24,24.78-8.76,43.67-8.76,23.07,0,29,1.72,46.29,13.39C167.81,1917.37,179.13,1929.56,185,1940.71ZM-15,2041.65-115.8,2142.19q1.11,9.95,2.24,19.87c3,26.57,16.53,38.69,43.21,38.69h19.1l100.19-100c89.12-88.91,100.2-101.43,100.2-113.15,0-29.12-17.95-46.54-48-46.54C86.54,1941.09,80.62,1946.22-15,2041.65Z"/><path id="_40-10" data-name="40" class="cls-9" d="M1197.55,1624.27c23.13,46.41,5.78,98.71-39.94,120.41-19.93,9.46-294.64,10.9-316.49,1.66-66.67-28.18-71.25-124-7.63-159.69l18.36-10.31L985.49,1575c90.06-.9,139.78.19,152.49,3.34C1166.82,1585.48,1185.33,1599.74,1197.55,1624.27Zm-355,13.91c-13.91,16.12-12.7,40.47,2.77,55.94l12,12.05h281.53l12-12.05c16.65-16.65,17-41.39.69-57.65-11-11-13.29-11.45-68.66-14.1-81.26-3.9-195.24-3.23-214.67,1.25C859.23,1625.73,847.71,1632.23,842.58,1638.18Z"/></g></g></g></svg>